// === ENTITY: roles ===
Table roles {
  id int [pk, increment]
  name varchar
  created_at timestamp [default: `CURRENT_TIMESTAMP`]
  updated_at timestamp [default: `CURRENT_TIMESTAMP ON UPDATE CURRENT_TIMESTAMP`]
}

// === RELATION: /relation/role_permissions/role_permissions.dbml ===
Table role_permissions {
    role_id int [ref: > roles.id]
}

// === DIRECT RELATION: /entities/users.dbml ===
Table users {
  role_id int [ref: > roles.id]
}
